Coordinates
version=1
nRows=14
nColumns=24
inDegrees=yes

Units are S.I. units (second, meters, Newtons, ...)
Angles are in degrees.

endheader
time	pelvis_tilt	pelvis_list	pelvis_rotation	pelvis_tx	pelvis_ty	pelvis_tz	hip_flexion_r	hip_adduction_r	hip_rotation_r	knee_angle_r	ankle_angle_r	subtalar_angle_r	mtp_angle_r	hip_flexion_l	hip_adduction_l	hip_rotation_l	knee_angle_l	ankle_angle_l	subtalar_angle_l	mtp_angle_l	lumbar_extension	lumbar_bending	lumbar_rotation
      1.52033333	     -5.82234128	      4.35244339	     -0.75807138	      0.44713304	      0.89853152	      0.29015298	     20.56785023	     -7.67616971	     -8.20953114	    -69.03625874	      5.63224398	      7.31453864	      8.56533009	     17.14821846	      8.25043625	     -1.13226730	    -23.58571129	     11.89073745	     -5.27500577	      2.68831261	     -0.07948993	     -7.05692241	      3.66400762
      1.52450000	     -5.69792495	      4.19608951	     -0.58114938	      0.45211957	      0.89993464	      0.28996015	     21.00291634	     -7.51683516	     -8.31363198	    -68.48762912	      6.05456747	      7.12091918	      8.46582424	     16.37103010	      8.15769925	     -0.83360370	    -23.01522777	     11.83285572	     -5.31098621	      2.69576597	     -0.22905061	     -6.88932734	      3.29420626
      1.52866667	     -5.58702950	      4.04718092	     -0.39225106	      0.45707096	      0.90128483	      0.28973807	     21.44253634	     -7.37274434	     -8.42570948	    -67.89616057	      6.47308526	      6.92146985	      8.30112537	     15.61244055	      8.07512803	     -0.50834253	    -22.43924799	     11.73244421	     -5.39201301	      2.70473356	     -0.35913003	     -6.73787620	      2.86936100
      1.53283333	     -5.44829583	      3.88352687	     -0.20138348	      0.46201692	      0.90265578	      0.28951599	     21.83314443	     -7.21354232	     -8.54664797	    -67.24294550	      6.83960948	      6.69868854	      8.13305799	     14.82635325	      7.96871973	     -0.19253501	    -21.86659698	     11.65596683	     -5.44817566	      2.71201607	     -0.52740899	     -6.55395296	      2.50291882
      1.53700000	     -5.33389020	      3.69601725	      0.00121697	      0.46695489	      0.90394105	      0.28929426	     22.23134740	     -7.03155544	     -8.68938182	    -66.53913923	      7.21731741	      6.44819216	      8.08407568	     14.09573351	      7.81865397	      0.06251276	    -21.35113571	     11.60061937	     -5.38959251	      2.71403955	     -0.64772371	     -6.31759148	      2.31916947
      1.54116667	     -5.18094436	      3.54421364	      0.20021687	      0.47186173	      0.90527080	      0.28904567	     22.58421871	     -6.89181660	     -8.80982290	    -65.79398938	      7.47990947	      6.21686505	      7.86650192	     13.28066026	      7.72803922	      0.45999862	    -20.73334781	     11.49271636	     -5.56786955	      2.71889781	     -0.85364312	     -6.15305828	      1.73945056
      1.54533333	     -5.02752198	      3.35838223	      0.40063302	      0.47678067	      0.90656290	      0.28882930	     22.91100034	     -6.71065478	     -8.94569350	    -64.98251476	      7.71882737	      5.92897484	      7.74875586	     12.49597918	      7.57280200	      0.75171445	    -20.18061019	     11.44448788	     -5.57689953	      2.72277678	     -1.03429350	     -5.93500694	      1.44902496
      1.54950000	     -4.89610022	      3.16863805	      0.62443021	      0.48166465	      0.90777166	      0.28858697	     23.24470909	     -6.53250346	     -9.10232655	    -64.12967376	      7.99094130	      5.62809299	      7.66330718	     11.75612089	      7.40936758	      1.05512509	    -19.65955907	     11.33552524	     -5.57554131	      2.72428607	     -1.20133067	     -5.72002624	      1.15135524
      1.55366667	     -4.75366847	      3.01370717	      0.82445446	      0.48655792	      0.90895131	      0.28834916	     23.56769827	     -6.39177753	     -9.22643915	    -63.24770307	      8.14443958	      5.32407110	      7.51431186	     10.97555445	      7.28328218	      1.38491591	    -19.07349760	     11.27465471	     -5.67794857	      2.72930196	     -1.36284355	     -5.53204952	      0.68118448
      1.55783333	     -4.62377068	      2.84145640	      1.04206178	      0.49142465	      0.91006565	      0.28810764	     23.88357225	     -6.23501323	     -9.37073015	    -62.31708844	      8.31859475	      4.99844737	      7.37133234	     10.23306673	      7.12795763	      1.69555378	    -18.52924816	     11.17898450	     -5.72298970	      2.73517322	     -1.51570374	     -5.32624729	      0.30991909
      1.56200000	     -4.51706145	      2.69149776	      1.26954629	      0.49625112	      0.91108791	      0.28785746	     24.21882392	     -6.10634901	     -9.51103243	    -61.36149617	      8.49386851	      4.66179148	      7.10561466	      9.52004808	      6.99544837	      2.03734587	    -17.98047489	     11.03379015	     -5.81876235	      2.75105496	     -1.65486912	     -5.15875398	     -0.17752542
      1.56616667	     -4.39537988	      2.50133687	      1.49523557	      0.50111083	      0.91210429	      0.28763450	     24.50430481	     -5.92992907	     -9.66808391	    -60.32828832	      8.60717282	      4.30918749	      7.00685694	      8.81693286	      6.79557951	      2.28265688	    -17.48884736	     10.95021725	     -5.76749257	      2.75784712	     -1.79104849	     -4.92550603	     -0.39273714
      1.57033333	     -4.28624648	      2.37022368	      1.71055137	      0.50594057	      0.91302669	      0.28739686	     24.81384475	     -5.82071195	     -9.79113711	    -59.29909878	      8.68209155	      3.92811711	      6.67427417	      8.09869700	      6.66821209	      2.60516388	    -16.92743667	     10.84497629	     -5.87520695	      2.78894404	     -1.91583316	     -4.77046609	     -0.95866905
      1.57450000	     -4.17150105	      2.19399858	      1.92637731	      0.51077808	      0.91392935	      0.28720535	     25.08344436	     -5.65148946	     -9.92436275	    -58.18955225	      8.72210871	      3.53956733	      6.56619044	      7.41179590	      6.46638308	      2.82158207	    -16.44095197	     10.77125585	     -5.80015757	      2.80031024	     -2.04848426	     -4.56285675	     -1.15934962
